<svg id="Layer_1" data-name="Layer 1" xmlns="http://www.w3.org/2000/svg" viewBox="0 0 92.82 60.68">
  <defs>
    <style>
      .cls-1 {
        fill: #64c195;
      }

      .cls-2 {
        fill: #22587a;
      }
    </style>
  </defs>
  <path class="cls-1" d="M58.57,13.31V34.65a20.27,20.27,0,0,1,6.32-4.39,18.3,18.3,0,0,1,7.27-1.46,18.76,18.76,0,0,1,14.3,6.36q5.9,6.36,5.89,16.31a22.51,22.51,0,0,1-6.09,16.06A19.13,19.13,0,0,1,71.85,74a18,18,0,0,1-6.92-1.32,21.35,21.35,0,0,1-6.36-4.33v4.54H47.87V13.31ZM69.91,38.75a11.24,11.24,0,0,0-8.45,3.48,12.53,12.53,0,0,0-3.36,9.08,12.91,12.91,0,0,0,3.36,9.27,11.14,11.14,0,0,0,8.45,3.53,11,11,0,0,0,8.32-3.59,12.85,12.85,0,0,0,3.37-9.16,12.69,12.69,0,0,0-3.32-9.07A11,11,0,0,0,69.91,38.75Z" transform="translate(-47.87 -13.31)"/>
  <path class="cls-2" d="M106.91,13.31V34.65a20.27,20.27,0,0,1,6.32-4.39,18.3,18.3,0,0,1,7.27-1.46,18.76,18.76,0,0,1,14.3,6.36q5.88,6.36,5.89,16.31a22.51,22.51,0,0,1-6.09,16.06A19.14,19.14,0,0,1,120.18,74a17.94,17.94,0,0,1-6.91-1.32,21.35,21.35,0,0,1-6.36-4.33v4.54H96.21V13.31Zm11.34,25.44a11.23,11.23,0,0,0-8.45,3.48,12.53,12.53,0,0,0-3.36,9.08,12.91,12.91,0,0,0,3.36,9.27,11.13,11.13,0,0,0,8.45,3.53,10.93,10.93,0,0,0,8.31-3.59,12.86,12.86,0,0,0,3.38-9.16,12.74,12.74,0,0,0-3.32-9.07A11,11,0,0,0,118.25,38.75Z" transform="translate(-47.87 -13.31)"/>
</svg>
