<svg id="Layer_1" data-name="Layer 1" xmlns="http://www.w3.org/2000/svg" viewBox="0 0 499.54 61.78">
  <defs>
    <style>
      .cls-1 {
        fill: #22587a;
      }

      .cls-2 {
        fill: #64c195;
      }
    </style>
  </defs>
  <path class="cls-1" d="M546.62,35.91l-6.68,6.68q-4.07-4-7.39-4a4.59,4.59,0,0,0-2.84.77,2.3,2.3,0,0,0-1,1.91,2.38,2.38,0,0,0,.65,1.6,12.4,12.4,0,0,0,3.22,2l4,2c4.17,2.06,7,4.15,8.58,6.28a13.09,13.09,0,0,1-1.88,17.07Q539,74,531.92,74a17.92,17.92,0,0,1-15-7.35l6.64-7.23A15.2,15.2,0,0,0,528,63a9.83,9.83,0,0,0,4.52,1.36,5.36,5.36,0,0,0,3.44-1A3,3,0,0,0,537.26,61c0-1.66-1.57-3.27-4.71-4.85l-3.63-1.82Q518.5,49,518.49,41.12a11.43,11.43,0,0,1,3.93-8.71,14.27,14.27,0,0,1,10.06-3.61,17.46,17.46,0,0,1,14.14,7.11Z" transform="translate(-47.87 -12.21)"/>
  <g>
    <path class="cls-2" d="M58.57,13.31V34.65a20.27,20.27,0,0,1,6.32-4.39,18.3,18.3,0,0,1,7.27-1.46,18.76,18.76,0,0,1,14.3,6.36q5.9,6.36,5.89,16.31a22.51,22.51,0,0,1-6.09,16.06A19.13,19.13,0,0,1,71.85,74a18,18,0,0,1-6.92-1.32,21.35,21.35,0,0,1-6.36-4.33v4.54H47.87V13.31ZM69.91,38.75a11.24,11.24,0,0,0-8.45,3.48,12.53,12.53,0,0,0-3.36,9.08,12.91,12.91,0,0,0,3.36,9.27,11.14,11.14,0,0,0,8.45,3.53,11,11,0,0,0,8.32-3.59,12.85,12.85,0,0,0,3.37-9.16,12.69,12.69,0,0,0-3.32-9.07A11,11,0,0,0,69.91,38.75Z" transform="translate(-47.87 -12.21)"/>
    <path class="cls-2" d="M133,29.9h10.79v43H133V68.34a21.24,21.24,0,0,1-6.33,4.33A17.75,17.75,0,0,1,119.78,74a19.11,19.11,0,0,1-14.4-6.46A22.51,22.51,0,0,1,99.3,51.47q0-9.94,5.88-16.31a18.73,18.73,0,0,1,14.28-6.36,18.21,18.21,0,0,1,7.26,1.46A19.74,19.74,0,0,1,133,34.65Zm-11.33,8.85a10.89,10.89,0,0,0-8.31,3.54A12.77,12.77,0,0,0,110,51.36a12.9,12.9,0,0,0,3.37,9.16,10.89,10.89,0,0,0,8.29,3.59,11.09,11.09,0,0,0,8.42-3.53,13,13,0,0,0,3.35-9.27,12.56,12.56,0,0,0-3.35-9.08A11.23,11.23,0,0,0,121.66,38.75Z" transform="translate(-47.87 -12.21)"/>
    <path class="cls-2" d="M153.5,13.31h10.78V72.88H153.5Z" transform="translate(-47.87 -12.21)"/>
    <path class="cls-2" d="M205.8,29.9h10.78v43H205.8V68.34a21.49,21.49,0,0,1-6.33,4.33A17.81,17.81,0,0,1,192.58,74a19.11,19.11,0,0,1-14.4-6.46,22.55,22.55,0,0,1-6.08-16.06q0-9.94,5.88-16.31a18.73,18.73,0,0,1,14.28-6.36,18.21,18.21,0,0,1,7.26,1.46,19.67,19.67,0,0,1,6.28,4.39Zm-11.34,8.85a10.91,10.91,0,0,0-8.31,3.54,12.77,12.77,0,0,0-3.3,9.07,12.89,12.89,0,0,0,3.36,9.16,10.91,10.91,0,0,0,8.29,3.59,11.11,11.11,0,0,0,8.43-3.53,12.94,12.94,0,0,0,3.34-9.27,12.56,12.56,0,0,0-3.34-9.08A11.27,11.27,0,0,0,194.46,38.75Z" transform="translate(-47.87 -12.21)"/>
    <path class="cls-2" d="M227.48,29.9h10.79v4.41a25.72,25.72,0,0,1,6.64-4.3A16,16,0,0,1,251,28.8a14.79,14.79,0,0,1,10.85,4.46q3.74,3.8,3.74,11.22v28.4H254.94V54.06c0-5.13-.23-8.53-.69-10.22A7,7,0,0,0,251.84,40a6.72,6.72,0,0,0-4.23-1.33A8,8,0,0,0,242,40.86a11.75,11.75,0,0,0-3.25,6.06,49.49,49.49,0,0,0-.47,8.72V72.88H227.48Z" transform="translate(-47.87 -12.21)"/>
    <path class="cls-2" d="M318.1,38.6l-9,4.93a13.33,13.33,0,0,0-10.79-4.7,13.47,13.47,0,0,0-9.79,3.61,12.31,12.31,0,0,0-3.74,9.25,11.87,11.87,0,0,0,3.6,9,13,13,0,0,0,9.45,3.47q7.25,0,11.27-4.93L317.63,65q-6.92,9-19.52,9-11.33,0-17.75-6.72a22.34,22.34,0,0,1,5.41-35.47,26,26,0,0,1,12.5-3,25.35,25.35,0,0,1,11.5,2.55A21.82,21.82,0,0,1,318.1,38.6Z" transform="translate(-47.87 -12.21)"/>
    <path class="cls-2" d="M365.88,54.52H331.23a11.53,11.53,0,0,0,4,7.28,12.58,12.58,0,0,0,8.32,2.71A14.38,14.38,0,0,0,354,60.28L363,64.55a21.44,21.44,0,0,1-8.14,7.13A25.44,25.44,0,0,1,343.64,74q-10.12,0-16.48-6.38a21.71,21.71,0,0,1-6.36-16,22.45,22.45,0,0,1,6.34-16.33A21.31,21.31,0,0,1,343,28.8q10.15,0,16.52,6.5t6.36,17.16ZM355.09,46a10.79,10.79,0,0,0-4.21-5.84,12.17,12.17,0,0,0-7.3-2.26,13,13,0,0,0-7.92,2.53,14.14,14.14,0,0,0-4,5.57Z" transform="translate(-47.87 -12.21)"/>
  </g>
  <g>
    <path class="cls-1" d="M384.91,13.31V34.65a20.27,20.27,0,0,1,6.32-4.39,18.3,18.3,0,0,1,7.27-1.46,18.76,18.76,0,0,1,14.3,6.36q5.88,6.36,5.89,16.31a22.51,22.51,0,0,1-6.09,16.06A19.14,19.14,0,0,1,398.18,74a17.94,17.94,0,0,1-6.91-1.32,21.35,21.35,0,0,1-6.36-4.33v4.54h-10.7V13.31Zm11.34,25.44a11.23,11.23,0,0,0-8.45,3.48,12.53,12.53,0,0,0-3.36,9.08,12.91,12.91,0,0,0,3.36,9.27,11.13,11.13,0,0,0,8.45,3.53,10.93,10.93,0,0,0,8.31-3.59,12.86,12.86,0,0,0,3.38-9.16,12.74,12.74,0,0,0-3.32-9.07A11,11,0,0,0,396.25,38.75Z" transform="translate(-47.87 -12.21)"/>
    <path class="cls-1" d="M431.82,12.21a6.58,6.58,0,0,1,4.86,2,6.8,6.8,0,0,1,2,5,6.76,6.76,0,0,1-2,4.92,6.53,6.53,0,0,1-4.8,2A6.63,6.63,0,0,1,427,24.12a6.93,6.93,0,0,1-2-5,6.68,6.68,0,0,1,2-4.86A6.61,6.61,0,0,1,431.82,12.21ZM426.43,29.9h10.78v43H426.43Z" transform="translate(-47.87 -12.21)"/>
    <path class="cls-1" d="M448.31,14.06H459.1V29.9h6.4v9.29h-6.4V72.88H448.31V39.19h-5.53V29.9h5.53Z" transform="translate(-47.87 -12.21)"/>
    <path class="cls-1" d="M514.32,54.52H479.68a11.48,11.48,0,0,0,4,7.28A12.53,12.53,0,0,0,492,64.51a14.38,14.38,0,0,0,10.39-4.23l9.09,4.27a21.51,21.51,0,0,1-8.14,7.13A25.45,25.45,0,0,1,492.08,74Q482,74,475.61,67.61a21.71,21.71,0,0,1-6.36-16,22.41,22.41,0,0,1,6.34-16.33,21.28,21.28,0,0,1,15.9-6.5q10.14,0,16.51,6.5t6.36,17.16ZM503.54,46a10.86,10.86,0,0,0-4.22-5.84,12.17,12.17,0,0,0-7.3-2.26,12.93,12.93,0,0,0-7.91,2.53,14.05,14.05,0,0,0-4,5.57Z" transform="translate(-47.87 -12.21)"/>
  </g>
</svg>
